{
    "asset": {
        "generator": "COLLADA2GLTF",
        "version": "2.0"
    },
    "scenes": [
        {
            "nodes": [
                0
            ]
        }
    ],
    "scene": 0,
    "nodes": [
        {
            "children": [
                8,
                7,
                6,
                5,
                4,
                3,
                2,
                1
            ],
            "name": "Root"
        },
        {
            "mesh": 0,
            "name": "Masa 8"
        },
        {
            "mesh": 1,
            "name": "Masa 6"
        },
        {
            "mesh": 2,
            "name": "Masa 7"
        },
        {
            "mesh": 3,
            "name": "Masa 5"
        },
        {
            "mesh": 4,
            "name": "Masa 4"
        },
        {
            "mesh": 5,
            "name": "Masa 3"
        },
        {
            "mesh": 6,
            "name": "Masa 2"
        },
        {
            "mesh": 7,
            "name": "Masa 1"
        }
    ],
    "meshes": [
        {
            "primitives": [
                {
                    "attributes": {
                        "NORMAL": 1,
                        "POSITION": 2
                    },
                    "indices": 0,
                    "mode": 4,
                    "material": 0
                }
            ],
            "name": "Masa 8"
        },
        {
            "primitives": [
                {
                    "attributes": {
                        "NORMAL": 4,
                        "POSITION": 5
                    },
                    "indices": 3,
                    "mode": 4,
                    "material": 1
                }
            ],
            "name": "Masa 6"
        },
        {
            "primitives": [
                {
                    "attributes": {
                        "NORMAL": 7,
                        "POSITION": 8
                    },
                    "indices": 6,
                    "mode": 4,
                    "material": 2
                }
            ],
            "name": "Masa 7"
        },
        {
            "primitives": [
                {
                    "attributes": {
                        "NORMAL": 10,
                        "POSITION": 11
                    },
                    "indices": 9,
                    "mode": 4,
                    "material": 3
                }
            ],
            "name": "Masa 5"
        },
        {
            "primitives": [
                {
                    "attributes": {
                        "NORMAL": 13,
                        "POSITION": 14
                    },
                    "indices": 12,
                    "mode": 4,
                    "material": 4
                }
            ],
            "name": "Masa 4"
        },
        {
            "primitives": [
                {
                    "attributes": {
                        "NORMAL": 16,
                        "POSITION": 17
                    },
                    "indices": 15,
                    "mode": 4,
                    "material": 5
                }
            ],
            "name": "Masa 3"
        },
        {
            "primitives": [
                {
                    "attributes": {
                        "NORMAL": 19,
                        "POSITION": 20
                    },
                    "indices": 18,
                    "mode": 4,
                    "material": 6
                }
            ],
            "name": "Masa 2"
        },
        {
            "primitives": [
                {
                    "attributes": {
                        "NORMAL": 22,
                        "POSITION": 23
                    },
                    "indices": 21,
                    "mode": 4,
                    "material": 7
                }
            ],
            "name": "Masa 1"
        }
    ],
    "accessors": [
        {
            "bufferView": 0,
            "byteOffset": 0,
            "componentType": 5123,
            "count": 36,
            "max": [
                23
            ],
            "min": [
                0
            ],
            "type": "SCALAR"
        },
        {
            "bufferView": 1,
            "byteOffset": 0,
            "componentType": 5126,
            "count": 24,
            "max": [
                1.0,
                1.0,
                1.0
            ],
            "min": [
                -1.0,
                -1.0,
                -1.0
            ],
            "type": "VEC3"
        },
        {
            "bufferView": 1,
            "byteOffset": 288,
            "componentType": 5126,
            "count": 24,
            "max": [
                1028.98095703125,
                77.16500091552735,
                1009.1079711914064
            ],
            "min": [
                996.114990234375,
                25.492000579833986,
                988.06298828125
            ],
            "type": "VEC3"
        },
        {
            "bufferView": 0,
            "byteOffset": 72,
            "componentType": 5123,
            "count": 48,
            "max": [
                29
            ],
            "min": [
                0
            ],
            "type": "SCALAR"
        },
        {
            "bufferView": 1,
            "byteOffset": 576,
            "componentType": 5126,
            "count": 30,
            "max": [
                1.0,
                1.0,
                1.0
            ],
            "min": [
                -0.9890000224113464,
                -1.0,
                -1.0
            ],
            "type": "VEC3"
        },
        {
            "bufferView": 1,
            "byteOffset": 936,
            "componentType": 5126,
            "count": 30,
            "max": [
                1177.52099609375,
                142.9459991455078,
                949.0449829101564
            ],
            "min": [
                1149.9620361328126,
                26.47599983215332,
                883.1010131835938
            ],
            "type": "VEC3"
        },
        {
            "bufferView": 0,
            "byteOffset": 168,
            "componentType": 5123,
            "count": 60,
            "max": [
                37
            ],
            "min": [
                0
            ],
            "type": "SCALAR"
        },
        {
            "bufferView": 1,
            "byteOffset": 1296,
            "componentType": 5126,
            "count": 38,
            "max": [
                0.9959999918937684,
                0.9940000176429749,
                1.0
            ],
            "min": [
                -0.9959999918937684,
                -1.0,
                -1.0
            ],
            "type": "VEC3"
        },
        {
            "bufferView": 1,
            "byteOffset": 1752,
            "componentType": 5126,
            "count": 38,
            "max": [
                1127.1669921875,
                75.03299713134766,
                1094.4949951171876
            ],
            "min": [
                901.8790283203124,
                26.47599983215332,
                996.3560180664064
            ],
            "type": "VEC3"
        },
        {
            "bufferView": 0,
            "byteOffset": 288,
            "componentType": 5123,
            "count": 36,
            "max": [
                23
            ],
            "min": [
                0
            ],
            "type": "SCALAR"
        },
        {
            "bufferView": 1,
            "byteOffset": 2208,
            "componentType": 5126,
            "count": 24,
            "max": [
                1.0,
                1.0,
                1.0
            ],
            "min": [
                -1.0,
                -1.0,
                -1.0
            ],
            "type": "VEC3"
        },
        {
            "bufferView": 1,
            "byteOffset": 2496,
            "componentType": 5126,
            "count": 24,
            "max": [
                1147.301025390625,
                69.3239974975586,
                1150.635009765625
            ],
            "min": [
                894.9010009765625,
                26.63999938964844,
                1103.0460205078126
            ],
            "type": "VEC3"
        },
        {
            "bufferView": 0,
            "byteOffset": 360,
            "componentType": 5123,
            "count": 36,
            "max": [
                23
            ],
            "min": [
                0
            ],
            "type": "SCALAR"
        },
        {
            "bufferView": 1,
            "byteOffset": 2784,
            "componentType": 5126,
            "count": 24,
            "max": [
                1.0,
                1.0,
                1.0
            ],
            "min": [
                -1.0,
                -1.0,
                -1.0
            ],
            "type": "VEC3"
        },
        {
            "bufferView": 1,
            "byteOffset": 3072,
            "componentType": 5126,
            "count": 24,
            "max": [
                1066.56103515625,
                39.599998474121097,
                1169.876953125
            ],
            "min": [
                1017.9110107421876,
                23.305999755859376,
                1150.291015625
            ],
            "type": "VEC3"
        },
        {
            "bufferView": 0,
            "byteOffset": 432,
            "componentType": 5123,
            "count": 36,
            "max": [
                23
            ],
            "min": [
                0
            ],
            "type": "SCALAR"
        },
        {
            "bufferView": 1,
            "byteOffset": 3360,
            "componentType": 5126,
            "count": 24,
            "max": [
                1.0,
                1.0,
                1.0
            ],
            "min": [
                -1.0,
                -1.0,
                -1.0
            ],
            "type": "VEC3"
        },
        {
            "bufferView": 1,
            "byteOffset": 3648,
            "componentType": 5126,
            "count": 24,
            "max": [
                1046.0799560546876,
                162.76400756835938,
                987.7349853515624
            ],
            "min": [
                996.5449829101564,
                26.63999938964844,
                925.0999755859376
            ],
            "type": "VEC3"
        },
        {
            "bufferView": 0,
            "byteOffset": 504,
            "componentType": 5123,
            "count": 72,
            "max": [
                41
            ],
            "min": [
                0
            ],
            "type": "SCALAR"
        },
        {
            "bufferView": 1,
            "byteOffset": 3936,
            "componentType": 5126,
            "count": 42,
            "max": [
                0.9890000224113464,
                1.0,
                1.0
            ],
            "min": [
                -0.9919999837875366,
                -1.0,
                -1.0
            ],
            "type": "VEC3"
        },
        {
            "bufferView": 1,
            "byteOffset": 4440,
            "componentType": 5126,
            "count": 42,
            "max": [
                1154.85595703125,
                147.3939971923828,
                951.1630249023438
            ],
            "min": [
                900.52099609375,
                26.63999938964844,
                880.218017578125
            ],
            "type": "VEC3"
        },
        {
            "bufferView": 0,
            "byteOffset": 648,
            "componentType": 5123,
            "count": 84,
            "max": [
                47
            ],
            "min": [
                0
            ],
            "type": "SCALAR"
        },
        {
            "bufferView": 1,
            "byteOffset": 4944,
            "componentType": 5126,
            "count": 48,
            "max": [
                1.0,
                1.0,
                1.0
            ],
            "min": [
                -1.0,
                -1.0,
                -1.0
            ],
            "type": "VEC3"
        },
        {
            "bufferView": 1,
            "byteOffset": 5520,
            "componentType": 5126,
            "count": 48,
            "max": [
                1236.8680419921876,
                90.125,
                1169.876953125
            ],
            "min": [
                1147.95703125,
                26.47599983215332,
                825.864990234375
            ],
            "type": "VEC3"
        }
    ],
    "materials": [
        {
            "pbrMetallicRoughness": {
                "baseColorFactor": [
                    0.7254902124404907,
                    0.7411764860153198,
                    0.7686274647712708,
                    1.0
                ],
                "metallicFactor": 0.0
            },
            "doubleSided": true
        },
        {
            "pbrMetallicRoughness": {
                "baseColorFactor": [
                    0.7254902124404907,
                    0.7411764860153198,
                    0.7686274647712708,
                    1.0
                ],
                "metallicFactor": 0.0
            },
            "doubleSided": true
        },
        {
            "pbrMetallicRoughness": {
                "baseColorFactor": [
                    0.7254902124404907,
                    0.7411764860153198,
                    0.7686274647712708,
                    1.0
                ],
                "metallicFactor": 0.0
            },
            "doubleSided": true
        },
        {
            "pbrMetallicRoughness": {
                "baseColorFactor": [
                    0.7254902124404907,
                    0.7411764860153198,
                    0.7686274647712708,
                    1.0
                ],
                "metallicFactor": 0.0
            },
            "doubleSided": true
        },
        {
            "pbrMetallicRoughness": {
                "baseColorFactor": [
                    0.7254902124404907,
                    0.7411764860153198,
                    0.7686274647712708,
                    1.0
                ],
                "metallicFactor": 0.0
            },
            "doubleSided": true
        },
        {
            "pbrMetallicRoughness": {
                "baseColorFactor": [
                    0.7254902124404907,
                    0.7411764860153198,
                    0.7686274647712708,
                    1.0
                ],
                "metallicFactor": 0.0
            },
            "doubleSided": true
        },
        {
            "pbrMetallicRoughness": {
                "baseColorFactor": [
                    0.7254902124404907,
                    0.7411764860153198,
                    0.7686274647712708,
                    1.0
                ],
                "metallicFactor": 0.0
            },
            "doubleSided": true
        },
        {
            "pbrMetallicRoughness": {
                "baseColorFactor": [
                    0.7254902124404907,
                    0.7411764860153198,
                    0.7686274647712708,
                    1.0
                ],
                "metallicFactor": 0.0
            },
            "doubleSided": true
        }
    ],
    "bufferViews": [
        {
            "buffer": 0,
            "byteOffset": 6096,
            "byteLength": 816,
            "target": 34963
        },
        {
            "buffer": 0,
            "byteOffset": 0,
            "byteLength": 6096,
            "byteStride": 12,
            "target": 34962
        }
    ],
    "buffers": [
        {
            "byteLength": 6912,
            "uri": "TAU-MSA.bin"
        }
    ]
}
